<svg width="596" height="256" viewBox="0 0 596 256" fill="none" xmlns="http://www.w3.org/2000/svg">
<path d="M56.4787 80.217C55.1253 79.404 53.6405 79 51.7518 79C49.7268 79 48.1058 79.404 46.8887 80.217C45.6767 81.025 45 82.1057 45 83.4591V172.44C45 173.521 45.6767 174.602 46.8887 175.546C48.2421 176.49 49.7268 177.031 51.6155 177.031C53.3073 177.036 54.9586 176.515 56.3423 175.546C57.6907 174.602 58.3674 173.521 58.3674 172.44V83.4591C58.5037 82.1057 57.827 81.025 56.4787 80.217ZM67.6846 126.935C66.8766 127.748 66.4675 128.828 66.7402 130.444C66.8766 132.065 67.5482 133.55 68.9016 134.903C70.1136 136.252 71.5984 137.196 73.2194 137.605C74.8405 138.009 76.0575 137.737 76.8655 137.065L84.0214 132.606V172.44C84.0214 173.521 84.6981 174.602 85.9151 175.546C87.1271 176.49 88.7482 177.031 90.6369 177.031C92.5306 177.031 94.1517 176.49 95.5 175.546C96.8484 174.602 97.5251 173.521 97.5251 172.44V118.698C97.5251 117.35 96.8484 116.405 95.5 115.592C94.1517 114.784 92.5306 114.38 90.5056 114.38C88.4805 114.38 86.9958 114.784 85.7788 115.592L67.6846 126.935ZM121.018 158.396C121.018 161.098 121.831 163.259 123.315 164.608C124.8 165.961 126.825 166.769 129.254 166.769C132.496 166.769 135.602 165.421 138.44 162.719C141.41 160.017 142.894 157.048 142.894 153.942V149.215H139.652C135.875 149.215 132.769 149.352 130.335 149.756C127.906 150.16 125.744 150.973 123.856 152.457C121.967 153.806 121.018 155.831 121.018 158.396ZM107.519 160.017C107.519 153.129 110.084 148.407 115.215 145.705C120.346 143.004 127.638 141.655 137.359 141.655H142.894V139.221C142.894 135.307 141.814 132.065 139.788 129.232C137.763 126.394 134.521 125.046 130.335 125.046C126.689 125.046 123.452 125.723 120.75 127.207C118.048 128.556 116.427 129.369 116.16 129.369C114.675 129.369 113.594 128.692 112.65 127.207C111.705 125.854 111.296 124.233 111.296 122.48C111.296 120.319 113.321 118.294 117.508 116.673C121.558 115.052 126.017 114.244 130.608 114.244C139.385 114.244 145.864 116.673 150.05 121.4C154.237 126.127 156.398 132.065 156.398 139.221V171.359C156.398 172.576 155.721 173.657 154.504 174.465C153.292 175.41 151.671 175.814 149.914 175.814C148.161 175.814 146.808 175.41 145.596 174.465C144.379 173.521 143.839 172.576 143.839 171.359V166.905C138.167 173.521 131.688 176.894 124.664 176.894C119.669 176.894 115.619 175.41 112.513 172.576C109.14 169.738 107.519 165.552 107.519 160.017ZM167.877 151.513V139.898C167.877 132.338 170.033 126.127 174.492 121.4C178.946 116.673 185.425 114.38 194.202 114.38C199.742 114.38 204.333 115.325 208.11 117.213C211.892 119.102 213.781 121.263 213.781 123.698C213.781 125.182 213.246 126.667 212.165 128.015C211.084 129.5 209.867 130.177 208.383 130.177C207.979 130.177 206.494 129.5 203.792 128.288C201.227 127.071 198.389 126.394 195.152 126.394C185.834 126.394 181.108 130.853 181.108 139.898V151.377C181.108 160.421 185.834 164.88 195.283 164.88C198.525 164.88 201.363 164.204 204.06 162.855C206.625 161.502 208.246 160.825 208.65 160.825C210.408 160.825 211.756 161.502 212.837 162.855C213.917 164.204 214.458 165.688 214.458 167.173C214.458 169.602 212.569 171.763 208.65 173.788C204.737 175.814 200.01 176.894 194.339 176.894C185.562 176.894 178.946 174.602 174.492 169.875C170.169 165.421 167.877 159.209 167.877 151.513ZM224.315 171.496V83.3228C224.315 81.9744 224.856 81.025 226.073 80.217C227.285 79.404 228.77 79 230.795 79C232.688 79 234.441 79.404 235.658 80.217C237.006 81.025 237.683 82.1057 237.683 83.3228V140.438L264.281 115.865C265.094 115.052 266.039 114.648 267.119 114.648C268.604 114.648 269.952 115.325 271.442 116.673C272.927 118.026 273.598 119.511 273.598 120.996C273.598 122.076 273.194 123.021 272.518 123.829L256.045 138.55L276.032 167.577C276.573 168.39 276.84 169.062 276.84 169.875C276.84 171.359 276.032 172.98 274.275 174.465C272.518 175.95 270.902 176.763 269.281 176.763C267.796 176.763 266.715 176.086 265.771 174.869L247 147.054L237.683 155.563V171.632C237.683 172.708 237.006 173.788 235.658 174.733C234.309 175.682 232.688 176.086 230.795 176.086C228.906 176.086 227.421 175.682 226.204 174.733C224.992 173.657 224.315 172.576 224.315 171.496ZM295.202 140.575H316.402C318.296 140.575 319.508 140.302 320.185 139.762C320.861 139.221 321.129 138.277 321.129 136.656C321.129 133.282 319.917 130.444 317.483 128.015C315.054 125.723 311.948 124.506 308.302 124.506C304.792 124.506 301.686 125.586 299.121 127.879C296.556 130.177 295.339 133.01 295.339 136.388V140.575H295.202ZM281.835 151.513V139.358C281.835 132.606 284.4 126.803 289.667 121.804C294.798 116.946 301.146 114.38 308.438 114.38C315.458 114.38 321.402 116.673 326.396 120.996C331.391 125.45 333.825 130.985 333.825 137.873C333.825 140.438 333.552 142.6 332.875 144.221C332.335 145.842 331.391 146.917 330.042 147.594C328.825 148.271 327.613 148.675 326.532 148.811C325.452 148.948 323.967 149.079 322.21 149.079H295.339V152.053C295.339 156.371 296.823 159.749 299.929 162.315C303.035 164.88 306.954 166.092 311.948 166.092C315.458 166.092 318.7 165.284 321.806 163.663C324.911 162.042 326.8 161.234 327.477 161.234C328.962 161.234 330.179 161.906 331.123 163.259C332.204 164.608 332.608 165.961 332.608 167.309C332.608 169.471 330.583 171.496 326.532 173.788C322.482 175.95 317.483 177.031 311.544 177.031C302.904 177.031 295.743 174.733 290.208 170.011C284.537 165.284 281.835 159.073 281.835 151.513ZM344.49 171.496V119.511C344.49 118.158 345.167 117.213 346.379 116.405C347.596 115.592 349.217 115.188 351.106 115.188C352.727 115.188 354.212 115.592 355.429 116.405C356.641 117.213 357.181 118.294 357.181 119.642V125.314C358.666 122.344 360.827 119.779 363.796 117.617C366.771 115.461 369.877 114.38 373.386 114.38H377.436C378.785 114.38 380.002 114.921 380.946 116.133C382.027 117.35 382.431 118.698 382.431 120.319C382.431 121.94 381.891 123.425 380.946 124.642C379.865 125.854 378.785 126.394 377.436 126.394H373.386C369.336 126.394 365.69 128.152 362.584 131.661C359.479 135.171 357.994 139.63 357.994 145.165V171.359C357.994 172.44 357.317 173.521 355.969 174.465C354.616 175.41 352.994 175.814 351.106 175.814C349.217 175.814 347.732 175.41 346.379 174.465C345.031 173.657 344.49 172.576 344.49 171.496ZM394.45 152.457C394.45 156.775 395.935 160.694 399.04 164.067C402.146 167.446 405.929 169.062 410.246 169.062C414.705 169.062 418.483 167.446 421.589 164.067C424.694 160.694 426.315 156.911 426.315 152.457V138.55C426.315 134.363 424.694 130.581 421.589 127.339C418.347 123.965 414.705 122.344 410.383 122.344C406.06 122.344 402.282 123.965 399.177 127.339C396.071 130.717 394.586 134.363 394.586 138.55V152.457H394.45ZM386.213 152.457V138.55C386.213 132.065 388.642 126.394 393.369 121.667C398.096 116.946 403.767 114.512 410.383 114.512C416.862 114.512 422.669 116.809 427.396 121.536C432.254 126.263 434.688 131.934 434.688 138.413V152.321C434.688 158.669 432.254 164.34 427.396 169.334C422.533 174.198 416.862 176.763 410.383 176.763C404.035 176.763 398.364 174.329 393.506 169.334C388.642 164.608 386.213 158.936 386.213 152.457ZM444.677 172.576V118.43C444.677 117.486 445.086 116.809 445.758 116.133C446.571 115.592 447.515 115.325 448.732 115.325C449.808 115.325 450.621 115.592 451.429 116.269C452.242 116.946 452.51 117.617 452.51 118.43V124.369C453.994 121.536 456.156 119.238 459.125 117.35C462.1 115.461 465.609 114.512 469.523 114.512C475.598 114.512 481.002 116.809 485.456 121.536C489.915 126.263 492.208 131.934 492.208 138.413V172.576C492.208 173.657 491.804 174.465 490.996 175.006C490.183 175.546 489.102 175.95 488.021 175.95C486.941 175.95 486.133 175.682 485.188 175.006C484.375 174.465 483.971 173.657 483.971 172.576V138.55C483.971 134.363 482.35 130.581 479.244 127.339C476.139 123.965 472.361 122.344 468.038 122.344C463.988 122.344 460.479 123.829 457.504 126.803C454.404 129.773 452.914 133.686 452.914 138.55V172.576C452.914 173.384 452.51 174.198 451.565 174.869C450.757 175.546 449.808 175.95 448.596 175.95C447.379 175.95 446.435 175.546 445.627 174.869C445.086 174.329 444.677 173.521 444.677 172.576ZM510.166 141.923H535.688C538.254 141.923 539.875 141.655 540.819 141.115C541.627 140.575 542.031 139.358 542.031 137.605C542.031 133.419 540.546 129.636 537.441 126.394C534.471 123.157 530.689 121.536 526.098 121.536C521.644 121.536 517.862 123.021 514.756 126.127C511.65 129.232 510.166 132.878 510.166 137.065V141.923ZM501.929 152.457V138.141C501.929 131.661 504.363 126.127 509.085 121.536C513.812 116.946 519.619 114.512 526.235 114.512C532.719 114.512 538.254 116.809 542.981 121.132C547.702 125.586 550 131.121 550 137.873C550 140.302 549.727 142.196 549.192 143.68C548.652 145.165 547.702 146.109 546.49 146.786C545.273 147.326 544.192 147.73 543.112 147.998C542.031 148.134 540.683 148.271 538.925 148.271H510.166V152.998C510.166 157.992 511.923 162.042 515.569 165.148C519.215 168.117 523.806 169.738 529.477 169.738C532.31 169.738 534.875 169.334 537.037 168.39C538.799 167.734 540.476 166.87 542.031 165.825C543.248 165.012 544.061 164.471 544.733 164.471C545.677 164.471 546.49 164.88 547.162 165.825C547.839 166.769 548.243 167.577 548.243 168.39C548.243 170.142 546.354 172.036 542.708 173.925C539.062 175.814 534.471 176.763 529.073 176.763C520.968 176.763 514.488 174.465 509.358 170.011C504.494 165.688 501.929 159.749 501.929 152.457Z" fill="black"/>
</svg>
